<svg width="76" height="82" viewBox="0 0 76 82" fill="none" xmlns="http://www.w3.org/2000/svg">
<g id="&#208;&#161;&#208;&#187;&#208;&#190;&#208;&#185; 4">
<path id="Vector" d="M37.59 77.7713C58.3504 77.7713 75.18 60.9417 75.18 40.1813C75.18 19.4209 58.3504 2.59131 37.59 2.59131C16.8296 2.59131 0 19.4209 0 40.1813C0 60.9417 16.8296 77.7713 37.59 77.7713Z" fill="#33D3CF"/>
<path id="Vector_2" d="M41.0801 4.2813L53.3301 0.0212973C53.3301 0.0212973 57.2701 -0.528703 58.5401 3.9613C59.8101 8.4513 57.9901 9.3913 57.9901 9.3913L53.0601 13.4413L41.0901 4.3013L41.0801 4.2813Z" fill="#FFFF1D"/>
<path id="Vector_3" d="M0.399814 37.7013C0.399814 37.7013 -0.0901857 42.8313 0.179814 44.5213C1.62981 53.6913 5.88981 60.1513 5.88981 60.1513L43.8598 81.5413C43.8598 81.5413 64.6998 72.1513 66.3598 70.8613C67.5198 67.2913 65.4898 65.6613 65.4898 65.6613L0.399814 37.7013Z" fill="#B5B5B5"/>
<path id="Vector_4" d="M51.3399 65.3013L44.5199 61.9813L37.9199 65.3613L44.5199 68.9613L51.3399 65.3013Z" fill="#FFA624"/>
<path id="Vector_5" d="M31.3101 56.9113L27.6101 55.0213L25.0301 56.1613C25.0301 56.1613 23.9801 54.6513 22.9901 55.0713C21.5301 55.6713 19.7601 56.4413 19.8901 56.4413C20.1101 56.4413 25.3601 59.5613 25.3601 59.5613L31.3001 56.9213L31.3101 56.9113Z" fill="#FFA624"/>
<path id="Vector_6" d="M24.7899 56.1613C24.7899 56.1613 17.5999 50.5313 17.9699 50.5313C18.3399 50.5313 21.7899 50.9513 21.7899 50.9513L20.2899 42.8413L25.0699 48.6213L30.3499 45.9213C30.3499 45.9213 27.6499 52.9013 27.8099 52.9013C27.9699 52.9013 32.4199 53.7313 32.4199 53.7313L24.7699 56.1513L24.7899 56.1613Z" fill="white"/>
<path id="Vector_7" d="M73.84 49.8713C73.84 49.8713 67.44 54.6113 53.55 51.2813L45.07 45.7113L42.58 41.7213L40.42 27.5013L32.77 35.6513L30.44 35.5713L30.52 38.5613L25.03 40.7213L18.96 38.0613L18.54 31.9113L26.6 29.7513L26.43 25.0913L34 17.6913L35.58 9.79132L36.66 5.55132C36.66 5.55132 39.4 4.22132 39.65 4.30132C39.9 4.38132 48.13 4.88132 48.38 4.97132C48.63 5.06132 51.79 8.05132 51.79 8.05132L52.7 12.3713L52.28 15.9413C52.28 15.9413 60.51 35.4813 60.68 35.7313C60.85 35.9813 64.92 37.5213 65.25 37.6813C65.58 37.8413 70.79 39.8213 71.61 40.0913C74.27 40.9613 74.15 46.1213 74.15 46.1213L73.82 49.8613L73.84 49.8713Z" fill="#FFFF1D"/>
<path id="Vector_8" d="M73.4498 50.3413C73.4998 50.1813 59.2898 56.6013 47.4398 48.1213C47.4398 48.1213 45.3598 49.7213 44.8198 50.4113C42.8698 52.9013 43.1598 56.1913 43.1598 56.1913L65.4798 65.6713C65.4798 65.6713 70.7898 59.0513 73.4498 50.3513V50.3413Z" fill="#7F7F7F"/>
<path id="Vector_9" d="M48.6429 13.42C49.9293 13.1503 50.738 11.8143 50.449 10.436C50.1601 9.0576 48.8829 8.15885 47.5965 8.42854C46.31 8.69824 45.5013 10.0343 45.7903 11.4126C46.0793 12.791 47.3564 13.6897 48.6429 13.42Z" fill="white"/>
<path id="Vector_10" d="M67.8446 49.3823C69.6392 49.0061 70.7348 46.9878 70.2917 44.8743C69.8486 42.7608 68.0347 41.3525 66.2401 41.7287C64.4455 42.1049 63.3499 44.1232 63.793 46.2367C64.236 48.3502 66.05 49.7586 67.8446 49.3823Z" fill="white"/>
<path id="Vector_11" d="M18.55 31.9113C18.67 32.1213 22.58 33.6613 22.58 33.6613C22.58 33.6613 23 39.1913 23.16 39.2713C23.32 39.3513 23.78 40.1813 23.78 40.1813L19.33 38.5213L18.54 36.5213V31.9113H18.55Z" fill="#B5B5B5"/>
</g>
</svg>
