<svg width="92" height="76" viewBox="0 0 92 76" fill="none" xmlns="http://www.w3.org/2000/svg">
<g clip-path="url(#clip0_406_233)">
<path d="M8.94973 22.4146C3.4801 22.4146 0.388058 18.0063 0.563742 12.5018C0.716002 7.35878 5.03783 3.31201 10.2029 3.31201H45.6794H61.5495C67.4291 3.31201 72.196 8.0585 72.196 13.9129V60.8764C72.196 64.7832 69.0102 67.9436 65.0983 67.9436H26.9046L22.4891 67.8736C21.189 67.8387 19.9358 68.2818 18.9286 69.0865C15.778 71.6055 9.7813 76.7485 2.1449 73.3782C1.25477 72.9817 0.692577 72.0837 0.680865 71.1157V70.276C8.80918 70.276 8.96144 63.3837 8.96144 63.3837V22.4146" fill="#00AAE6"/>
<path d="M9.45363 22.4148C3.984 22.4148 0.891964 18.0065 1.06765 12.502C1.21991 7.35896 5.54174 3.3122 10.7068 3.3122H61.2687H62.0417C62.8616 3.3122 63.6697 3.4055 64.431 3.58043C69.1511 4.66501 72.6765 8.87504 72.6765 13.9131V60.8765C72.6765 64.7834 69.4907 67.9438 65.5788 67.9438H27.4085L22.993 67.8738C21.693 67.8388 20.4397 68.282 19.4325 69.0867C16.2819 71.6057 10.2852 76.7487 2.6488 73.3784C1.75867 72.9818 1.19648 72.0839 1.18477 71.1159V70.2762C9.31309 70.2762 9.46534 63.3839 9.46534 63.3839V22.4148H51.8989L60.32 22.5197C54.9909 22.5197 53.1053 18.2164 53.1053 12.9101C53.1053 8.10534 56.3496 3.30054 61.2804 3.30054" stroke="#5F5F5F" stroke-width="1.8" stroke-linecap="round"/>
<path d="M63.0607 22.5431C66.6096 22.5431 69.3268 19.1377 68.8935 15.4525C68.507 12.2221 65.5672 9.88965 62.2994 9.88965H55.0496C54.0657 9.88965 53.2459 10.6477 53.1873 11.6156C53.1873 11.6156 52.3792 17.5867 56.5839 21.7734C57.6028 22.788 63.0607 22.5314 63.0607 22.5314V22.5431Z" stroke="#5F5F5F" stroke-width="1.8" stroke-linecap="round"/>
<path d="M22.1494 32.2109H53.6906" stroke="#5F5F5F" stroke-width="1.8" stroke-linecap="round"/>
<path d="M22.1494 39.4531H53.6906" stroke="#5F5F5F" stroke-width="1.8" stroke-linecap="round"/>
<path d="M22.1494 47.698H53.6906" stroke="#5F5F5F" stroke-width="1.8" stroke-linecap="round"/>
</g>
<defs>
<clipPath id="clip0_406_233">
<rect width="91.4963" height="75.5474" fill="white"/>
</clipPath>
</defs>
</svg>
