<svg width="77" height="83" viewBox="0 0 77 83" fill="none" xmlns="http://www.w3.org/2000/svg">
<g id="&#208;&#161;&#208;&#187;&#208;&#190;&#208;&#185; 3">
<path id="Vector" d="M59.7797 9.9801C69.6197 16.7601 76.0797 28.1101 76.0797 40.9601C76.0797 50.7901 72.2997 59.7501 66.1197 66.4401L45.2197 76.1601" stroke="#5F5F5F" stroke-width="1.8" stroke-linecap="round" stroke-linejoin="round"/>
<path id="Vector_2" d="M44.4299 3.85009C39.7199 3.07009 35.9199 3.45009 35.9199 3.45009C16.3599 4.78009 0.899902 21.0701 0.899902 40.9601C0.899902 60.4201 15.6899 76.4301 34.6499 78.3601L37.8599 78.5801" stroke="#5F5F5F" stroke-width="1.8" stroke-linecap="round" stroke-linejoin="round"/>
<path id="Vector_3" d="M29.5298 50.9301L65.1898 65.9301C66.7898 66.6301 67.8298 68.2101 67.8298 69.9601C67.8098 70.9701 67.2598 71.9001 66.3698 72.3901L46.2198 81.4901" stroke="#5F5F5F" stroke-width="1.8" stroke-linecap="round" stroke-linejoin="round"/>
<path id="Vector_4" d="M1 38.9301L21.87 47.7101" stroke="#5F5F5F" stroke-width="1.8" stroke-linecap="round" stroke-linejoin="round"/>
<path id="Vector_5" d="M3.12988 52.89L44.3899 75.84C45.7899 76.7 46.6399 78.22 46.6399 79.85V80.18C46.6399 81.59 45.1099 82.46 43.8999 81.75L6.00988 59.77" stroke="#5F5F5F" stroke-width="1.8" stroke-linecap="round" stroke-linejoin="round"/>
<path id="Vector_6" d="M45.0301 70.39L53.5401 66.69L45.3701 62.76L37.0601 66.25L45.0301 70.39Z" stroke="#5F5F5F" stroke-width="1.8" stroke-linecap="round" stroke-linejoin="round"/>
<path id="Vector_7" d="M22.9701 55.9701L19.3501 57.4601L26.3601 60.7601L33.6201 57.6001L29.7501 55.8201" stroke="#5F5F5F" stroke-width="1.8" stroke-linecap="round" stroke-linejoin="round"/>
<g id="Group">
<g id="Group_2">
<path id="Vector_8" d="M50.2198 18.7054C53.1243 17.7611 54.5292 14.0748 53.3578 10.4717C52.1864 6.86871 48.8823 4.71336 45.9778 5.65765C43.0733 6.60194 41.6684 10.2883 42.8397 13.8913C44.0111 17.4943 47.3153 19.6497 50.2198 18.7054Z" stroke="#5F5F5F" stroke-width="1.8" stroke-linecap="round" stroke-linejoin="round"/>
<path id="Vector_9" d="M41.4395 28.7L43.2695 40.82C43.7095 43.72 45.3695 46.29 47.8295 47.89L53.1195 51.31C54.0295 51.9 55.0295 52.36 56.0895 52.6C59.4695 53.38 62.6495 53.28 63.6095 53.28C68.9395 53.28 74.5695 51.76 74.5695 50.51C74.5695 50.51 76.7895 42.27 71.1895 40.33L66.7895 38.82C65.5295 38.27 61.5495 36.94 60.3495 33.94L53.0295 16.47" stroke="#5F5F5F" stroke-width="1.8" stroke-linecap="round" stroke-linejoin="round"/>
<path id="Vector_10" d="M47.5396 5.46001L41.5796 5.19001C39.8096 5.10001 38.1196 6.04001 37.3396 7.62001C36.8696 8.57001 36.6296 9.70001 36.6596 10.89L34.9395 18.72L29.1496 24.3C28.0396 25.37 27.4096 26.85 27.4196 28.39V30.55" stroke="#5F5F5F" stroke-width="1.8" stroke-linecap="round" stroke-linejoin="round"/>
<path id="Vector_11" d="M31.8597 36.4801V37.7601C31.8597 38.7901 31.1897 39.6901 30.2097 40.0001L26.3397 41.2101C23.9797 41.1901 23.6697 39.6001 23.6497 37.2401L23.6297 34.2401L19.4497 32.6801" stroke="#5F5F5F" stroke-width="1.8" stroke-linecap="round" stroke-linejoin="round"/>
<path id="Vector_12" d="M25.6197 41.37L20.5697 39.33C19.5997 38.73 19.4397 37.43 19.4297 35.73L19.4097 32.73L27.4097 30.54L31.5497 31.81" stroke="#5F5F5F" stroke-width="1.8" stroke-linecap="round" stroke-linejoin="round"/>
<path id="Vector_13" d="M25.8599 41.8V48.6101" stroke="#5F5F5F" stroke-width="1.8" stroke-linecap="round" stroke-linejoin="round"/>
<path id="Vector_14" d="M50.5545 14.6533C51.8413 14.2349 52.4637 12.6014 51.9446 11.0047C51.4255 9.40803 49.9615 8.45281 48.6747 8.87116C47.3879 9.28952 46.7655 10.923 47.2846 12.5197C47.8037 14.1164 49.2677 15.0716 50.5545 14.6533Z" stroke="#5F5F5F" stroke-width="1.8" stroke-linecap="round" stroke-linejoin="round"/>
<path id="Vector_15" d="M69.1629 50.5358C70.9645 49.9501 71.8366 47.6658 71.1109 45.4336C70.3851 43.2014 68.3364 41.8666 66.5349 42.4523C64.7334 43.038 63.8613 45.3224 64.587 47.5546C65.3127 49.7868 67.3614 51.1215 69.1629 50.5358Z" stroke="#5F5F5F" stroke-width="1.8" stroke-linecap="round" stroke-linejoin="round"/>
</g>
<path id="Vector_16" d="M41.8599 5.11006L53.1399 1.28006C55.2299 0.230061 57.9399 1.40006 59.1999 3.90006C60.4599 6.40006 59.9399 9.54006 57.8499 10.6001L53.7899 14.3001" stroke="#5F5F5F" stroke-width="1.8" stroke-linecap="round" stroke-linejoin="round"/>
<path id="Vector_17" d="M46.5298 18.64L50.5698 39.24C51.1298 41.84 52.2198 44.3 53.7798 46.46L58.5598 53.06" stroke="#5F5F5F" stroke-width="1.8" stroke-linecap="round" stroke-linejoin="round"/>
<path id="Vector_18" d="M73.2297 55.39C70.4197 56.61 66.2197 57.38 61.5297 57.38C53.0797 57.38 46.2397 54.88 46.2397 51.79C46.2397 50.63 47.1997 49.56 48.8497 48.66" stroke="#5F5F5F" stroke-width="1.8" stroke-linecap="round" stroke-linejoin="round"/>
<path id="Vector_19" d="M47.1796 49.78C47.1396 49.9 44.0596 51.53 44.0596 56.8" stroke="#5F5F5F" stroke-width="1.8" stroke-linecap="round" stroke-linejoin="round"/>
</g>
<path id="Vector_20" d="M25.8501 49.48L20.7001 42.25L22.9001 52.06L18.6201 51.06L25.7201 56.77L33.1701 54.56L28.3101 52.93L32.3401 45.74L25.8501 49.48Z" stroke="#5F5F5F" stroke-width="1.8" stroke-linecap="round" stroke-linejoin="round"/>
<path id="Vector_21" d="M42.3699 10.66L39.9899 20.08L33.8299 25.45C32.7299 26.5 32.0999 27.94 32.0799 29.46L32.0399 31.92L30.9999 33.12C30.2499 33.98 30.3499 35.29 31.2099 36.04C32.0399 36.77 33.2999 36.71 34.0699 35.91L42.8299 27.07C43.8799 26.01 44.6499 24.7 45.0599 23.26L46.4299 18.47" stroke="#5F5F5F" stroke-width="1.8" stroke-linecap="round" stroke-linejoin="round"/>
</g>
</svg>
